PathFileType	3	(X/Y/Z)	D:\Jess\Healthy\Labelled\HA16\20250507\SRRun02.trc
DataRate	CameraRate	NumFrames	NumMarkers	Units	OrigDataRate	OrigDataStartFrame	OrigNumFrames
250.0	250.0	4	37	mm	250.0	35937	2501
Frame#	Time	C7			T10			CLAV			LSHO			RSHO			LASIS			RASIS			LPSIS			RPSIS			LILCR			RILCR			LGTR			LTHI			LLTHI			LLEP			LMEP			LPSH			LLSH			LDSH			LLMAL			LMMAL			LTOE			L5TH			LHEE			RGTR			RTHI			RLTHI			RLEP			RMEP			RPSH			RLSH			RDSH			RLMAL			RMMAL			RTOE			R5TH			RHEE			
		X1	Y1	Z1	X2	Y2	Z2	X3	Y3	Z3	X4	Y4	Z4	X5	Y5	Z5	X6	Y6	Z6	X7	Y7	Z7	X8	Y8	Z8	X9	Y9	Z9	X10	Y10	Z10	X11	Y11	Z11	X12	Y12	Z12	X13	Y13	Z13	X14	Y14	Z14	X15	Y15	Z15	X16	Y16	Z16	X17	Y17	Z17	X18	Y18	Z18	X19	Y19	Z19	X20	Y20	Z20	X21	Y21	Z21	X22	Y22	Z22	X23	Y23	Z23	X24	Y24	Z24	X25	Y25	Z25	X26	Y26	Z26	X27	Y27	Z27	X28	Y28	Z28	X29	Y29	Z29	X30	Y30	Z30	X31	Y31	Z31	X32	Y32	Z32	X33	Y33	Z33	X34	Y34	Z34	X35	Y35	Z35	X36	Y36	Z36	X37	Y37	Z37	

938	143.744	1084.960143630504	1320.518001523833	-324.5843798151911	975.5841399142859	1103.283124757775	-356.6653365146373	1197.825408217325	1193.790169363383	-304.6296448372227	1125.413802952649	1247.67066695411	-173.9092521430194	1170.732021531949	1273.212778948814	-451.4592434278084	1143.770418113753	834.5626089590837	-448.5731249981753	1114.680149631446	873.2808155503409	-213.8307448082465	952.1672188049727	899.9219924258415	-391.1434296218363	944.9833135837515	902.8626564810126	-343.553676266996	1091.342205586536	923.372000590117	-489.0054424792355	1035.201551299875	945.1210505246361	-196.2453837383034	1076.390017423708	758.4477881842514	-517.6426448417508	1188.992782966414	626.4320177419913	-442.3566668726329	1106.491520182934	530.6588043235386	-499.716446850727	1111.932483893837	419.7312084288959	-485.5094894508168	nan	nan	nan	1083.091425048988	329.5763852437475	-444.1113342083078	955.7898014811328	379.1703923497215	-494.3259871794014	901.019574418686	281.1845818928499	-450.6673420485779	787.8745198265755	306.9354605833357	-475.8899058234319	nan	nan	nan	766.004639175006	170.7892542118091	-502.0555217240675	730.9963000321093	211.6462564883419	-529.4901655974157	754.1838024634854	350.5825033276879	-412.187627947779	1035.019659238518	792.1903897859753	-159.5837069902317	1184.226623250558	675.9967106101044	-236.5242249622756	1108.566075575332	569.4870188010034	-197.2979756329736	1134.624243287039	438.3692176195076	-233.4938696783577	nan	nan	nan	1177.515324081648	361.5531219775768	-289.049622299423	1090.797718765761	273.5722281477196	-244.8704677948624	1104.299898721861	168.731679848918	-313.0494405037245	1018.738025039295	105.7981413204432	-297.2137330561029	nan	nan	nan	1137.44408091615	63.90405802039816	-270.9214421610373	1094.731612385895	49.54818682842067	-243.0761185676741	958.1377345610347	82.43282679211191	-357.7565271429433	
939	143.748	1084.274476803684	1320.335969070046	-323.9710235558787	974.9104853846907	1103.18275766563	-355.5766059907439	1197.689821163516	1193.772296281825	-305.3492779051199	1126.59854151101	1247.360652942549	-173.805558740345	1168.802144863586	1273.250465014709	-451.7458062528475	1142.597379573623	834.1392047239417	-448.6968973558484	1114.471798015562	872.9733354902996	-214.2007027214429	951.327632665602	900.2004157840787	-390.1663319933481	944.3153305431118	903.3186168686167	-342.5892565383923	1089.912817457395	923.3448970918138	-489.0734350673198	1035.442063962179	945.5482494538693	-196.118165671125	1074.849839196484	758.3103876119524	-517.2213494889488	1190.810273791108	628.1869068171585	-441.3763438451729	1110.974646170311	531.3286534750195	-499.2630534231524	1118.749861806975	420.5054017074913	-484.4686305566772	nan	nan	nan	1090.915686776795	330.241030326124	-442.8170337590294	963.4936769492002	378.477713540177	-493.7014923576642	909.4283877667078	279.7946413756337	-450.1586125652046	795.9693990533574	303.8159647073646	-476.3434671137364	nan	nan	nan	777.4781555911831	167.1166265315191	-501.489578068359	741.8272442473119	206.8597163717315	-529.6737096728388	760.4113188865114	347.3095213605535	-413.3668998756062	1033.887424775522	792.2447900803422	-159.1642639631808	1181.34699209705	674.4346602120768	-236.478899621096	1104.172202650175	568.648866998975	-196.8555929456504	1128.287708991559	436.8829270158164	-232.9045604718514	nan	nan	nan	1170.847294811801	359.4708254069767	-287.9941466598432	1082.816378294466	272.6226474276275	-244.5188825494754	1095.119917612242	167.8914655554651	-312.6684244100231	1008.751528444644	105.9116908060863	-297.0812081240088	nan	nan	nan	1127.102952897725	63.67652276953952	-270.6751121258537	1084.336908706803	49.35923644872235	-242.8825970350696	948.0095604098075	82.90033289744464	-357.6509399295647	
940	143.752	1083.500061581029	1320.337706171472	-323.3337665075803	974.3047270507092	1103.210317618012	-354.4571728851371	1197.530650329001	1194.087535679917	-306.1011179824756	1127.77307212867	1247.397107130265	-173.7355277797276	1166.730631155978	1273.656650223531	-452.0304008291128	1141.430089700463	834.1011343382245	-448.8813452618143	1114.344067801285	872.7080069919569	-214.5818221733952	950.5154575854394	900.6319464478537	-389.0587290151838	943.6816254031822	903.9089005828297	-341.498687805271	1088.562679266914	923.651911530328	-489.1085186636248	1035.884101265011	945.9927578801896	-195.9643105196603	1073.206412544036	758.4482454146878	-516.8284402957286	1192.497365586297	630.2214952502621	-440.4879580690677	1115.330214154913	532.3347372087946	-498.7574364697596	1125.440665074558	421.6354465099312	-483.3700268481407	nan	nan	nan	1098.699887094614	331.2017722229585	-441.5028326520418	971.0883432269067	377.8628188547353	-493.0224473994905	917.9197491451297	278.373610107306	-449.6374338187152	804.1060410488881	300.4181886235172	-476.7765124638273	nan	nan	nan	789.2549247403465	163.212534434099	-500.845918784002	752.8735825266679	201.7308946561534	-529.7402812968776	766.6569450348125	343.6528226402066	-414.5215757537553	1032.822192530924	792.3301699520209	-158.7583226190056	1178.452021305627	672.9189702925047	-236.4798247856892	1099.648392841044	567.9050360448035	-196.467703842356	1121.701455392478	435.4672009210088	-232.3537126064284	nan	nan	nan	1163.95322379473	357.4792115416575	-286.9878783934018	1074.662809831364	271.7522049280778	-244.2049855993638	1085.851524236087	167.120097205441	-312.2805223630861	998.7259164243962	106.0551137040845	-296.9536890708044	nan	nan	nan	1116.75263613384	63.42458866819402	-270.4366222558924	1073.921214412352	49.16555722242507	-242.6987003333218	937.8645737617519	83.40288349392951	-357.5528582398903	
941	143.756	1082.650889381565	1320.525493932879	-322.6722432426811	973.7714778260575	1103.364677143683	-353.3039983284718	1197.353608376498	1194.725897395239	-306.8831152360764	1128.944246245632	1247.776519362071	-173.6947926713281	1164.529869259517	1274.420736067005	-452.315191138171	1140.276674245188	834.4245501139018	-449.1139906935884	1114.28862166447	872.487244699782	-214.9525905140314	949.7357765249325	901.2105132741906	-387.8518602801602	943.0882625030858	904.6279757912525	-340.3119985075122	1087.295981817962	924.2616644258962	-489.1055912003844	1036.513092649917	946.4497584735833	-195.7827377466409	1071.489968390686	758.8471949538302	-516.4648187381498	1194.05180695672	632.5298557869551	-439.6970510983545	1119.5361796285	533.667389154721	-498.1981685057888	1131.981354787169	423.1152716554222	-482.2227833158159	nan	nan	nan	1106.424226748761	332.4551538151886	-440.178196099645	978.5542141937029	377.3155495119756	-492.2988356285569	926.4846012081018	276.9227691012047	-449.1021636037723	812.2864535955455	296.7483438585128	-477.1752982670329	nan	nan	nan	801.3235877989225	159.108485886484	-500.1357162080106	764.1332643578099	196.295436154772	-529.691956879748	772.9364450240199	339.6032948574887	-415.6271576444005	1031.824767900905	792.4548538117403	-158.3696746225742	1175.548946105902	671.4403881321203	-236.5060997307544	1095.023884481388	567.2671895576225	-196.1347790636705	1114.916132977617	434.1525583738949	-231.850475177089	nan	nan	nan	1156.855359453357	355.6097354266965	-286.0574010550335	1066.36792150536	270.9861289594064	-243.9349361916091	1076.510997590965	166.4341538158845	-311.8964140484984	988.6715664181274	106.243978483522	-296.8340132656911	nan	nan	nan	1106.399917725723	63.15293510774023	-270.2079765960539	1063.490238667031	48.97763963439567	-242.5261232953703	927.7103719520991	83.95530514982791	-357.4627066515696	
